Coordinates
nRows=7
nColumns=38

# SIMM Motion File Header:
name Coordinates
datacolumns 38
datarows 7
otherdata 1
range 1.27000000000000000000 1.27600000000000000000

Units are S.I. units (second, meters, Newtons, ...)
Angles are in degrees.

endheader
time	pelvis_tilt	pelvis_list	pelvis_rotation	pelvis_tx	pelvis_ty	pelvis_tz	hip_flexion_r	hip_adduction_r	hip_rotation_r	knee_angle_r	ankle_angle_r	subtalar_angle_r	mtp_angle_r	hip_flexion_l	hip_adduction_l	hip_rotation_l	knee_angle_l	ankle_angle_l	subtalar_angle_l	mtp_angle_l	lumbar_extension	lumbar_bending	lumbar_rotation	arm_flex_r	arm_add_r	arm_rot_r	elbow_flex_r	pro_sup_r	wrist_flex_r	wrist_dev_r	arm_flex_l	arm_add_l	arm_rot_l	elbow_flex_l	pro_sup_l	wrist_flex_l	wrist_dev_l
      1.27000000000000000000	      1.29250880613464480000	     -4.61964923613237220000	     -1.25825915088796410000	      0.82781960041615021000	      0.98236785459801601000	     -0.35246323896693332000	     -1.10608767635135430000	     12.72255498113030500000	      4.97740925729435450000	    -29.14006243436753300000	     22.44598391687057100000	      0.00000000000002708637	      0.00000000000004399024	     29.01715390198495800000	     -3.29117808275344940000	      2.52769879384746070000	    -87.59221365608991100000	     -4.27386425910753690000	      0.00000000000001790057	      0.00000000000002055839	    -16.47828732948270800000	      2.71853743441223060000	      4.97067855733676110000	    -14.09396021026574000000	    -25.29806525172334000000	    -12.22508564538645700000	     92.79367161067119700000	     68.38827760825542200000	     -0.00000000000000056813	      0.00000000000000007231	    -16.43173555462636100000	    -17.18653758912225600000	     -3.26321838317569450000	     79.96797280563511400000	    104.32090418837939000000	      0.00000000000000660846	      0.00000000000000093610
      1.27100000000000010000	      1.26275808378163920000	     -4.49210906097189340000	     -1.23884514717522840000	      0.82804565848288314000	      0.98288276624599491000	     -0.35252169747733958000	     -1.40470317343131050000	     12.56029167297933200000	      5.01044495328732880000	    -28.87866644157643100000	     22.28062992792818200000	      0.00000000000002725488	      0.00000000000004475280	     29.17638616675996800000	     -3.11037545751882720000	      2.52463752331782040000	    -87.25538977594750600000	     -4.20582558331006680000	      0.00000000000001818198	      0.00000000000002081547	    -16.40404247337053400000	      2.58240502429340380000	      5.01950052637241480000	    -14.11563124344294500000	    -25.29198554457028400000	    -12.27827716846105400000	     92.90347982988984700000	     68.39003201688322500000	     -0.00000000000000055697	      0.00000000000000003568	    -16.68942317005721400000	    -17.21603011811044900000	     -3.39019372296176160000	     80.13186032970506300000	    104.11277108736078000000	      0.00000000000000673776	      0.00000000000000097545
      1.27200000000000000000	      1.23284826384401880000	     -4.36205854455371260000	     -1.22029966326332850000	      0.82827610938377416000	      0.98340417189705998000	     -0.35258039111267503000	     -1.70292618077281040000	     12.39474789374211400000	      5.04194193363898260000	    -28.61607722444843600000	     22.10724280859659900000	      0.00000000000002742789	      0.00000000000004552452	     29.33141940739849900000	     -2.92707256320954960000	      2.51951782205636480000	    -86.91108028942318200000	     -4.13852127850537600000	      0.00000000000001847344	      0.00000000000002108162	    -16.32924284436263600000	      2.44322273020168400000	      5.06892187645997970000	    -14.13898209583854600000	    -25.28417994275261500000	    -12.33338221249423600000	     93.01342302156223200000	     68.39542313197907200000	     -0.00000000000000054548	     -0.00000000000000000113	    -16.94686927869099000000	    -17.24685467158641900000	     -3.51474449662114230000	     80.29817091205519800000	    103.90161605840460000000	      0.00000000000000686058	      0.00000000000000101549
      1.27300000000000010000	      1.20282261304372650000	     -4.22955723603782910000	     -1.20268587815385850000	      0.82851088917469051000	      0.98393203606488489000	     -0.35263917390652377000	     -2.00075435372225960000	     12.22600447365236100000	      5.07188779463833320000	    -28.35236483369101300000	     21.92564046964038100000	      0.00000000000002759576	      0.00000000000004627738	     29.48219486966626200000	     -2.74140778591705110000	      2.51228932217418380000	    -86.55924915310510000000	     -4.07207234106147360000	      0.00000000000001877418	      0.00000000000002135547	    -16.25396724577212700000	      2.30103167062225240000	      5.11897408479346530000	    -14.16390929807473500000	    -25.27469022092218200000	    -12.39026686263581700000	     93.12341486787293800000	     68.40442340200237900000	     -0.00000000000000053403	     -0.00000000000000003316	    -17.20400192740492800000	    -17.27896944560069400000	     -3.63688779626679760000	     80.46666943884167700000	    103.68769846501327000000	      0.00000000000000698746	      0.00000000000000105516
      1.27400000000000000000	      1.17272305890032060000	     -4.09467109323061070000	     -1.18606196012983460000	      0.82874992947670423000	      0.98446631517436789000	     -0.35269790411788771000	     -2.29818229251955590000	     12.05414967906722600000	      5.10026671808365870000	    -28.08760157045674800000	     21.73564276154332800000	      0.00000000000002776156	      0.00000000000004701749	     29.62866025243895900000	     -2.55352512869035090000	      2.50290975967464390000	    -86.19986438160475500000	     -4.00660352731362490000	      0.00000000000001908104	      0.00000000000002162288	    -16.17829301002770800000	      2.15588167951721040000	      5.16968180905290350000	    -14.19030848765032500000	    -25.26356252674246200000	    -12.44878992058614000000	     93.23337253141161800000	     68.41698632313226400000	     -0.00000000000000052324	     -0.00000000000000005658	    -17.46075586073721600000	    -17.31232834877718900000	     -3.75665261255501020000	     80.63712780744049300000	    103.47128185661450000000	      0.00000000000000713431	      0.00000000000000109686
      1.27500000000000010000	      1.14259011826139330000	     -3.95747232672475710000	     -1.17048083060528650000	      0.82899315738524071000	      0.98500695719003217000	     -0.35275644470033601000	     -2.59520148968814550000	     11.87927899269239500000	      5.12705939901150030000	    -27.82186198360281900000	     21.53707306285991800000	      0.00000000000002797458	      0.00000000000004775939	     29.77076972920599800000	     -2.36357373531679340000	      2.49134537495405930000	    -85.83289848607462600000	     -3.94224213718525980000	      0.00000000000001939854	      0.00000000000002187651	    -16.10229586267200500000	      2.00783118801162090000	      5.22106276855863080000	    -14.21807470360676700000	    -25.25084712064737100000	    -12.50880365029721400000	     93.34321675886471300000	     68.43304737875864400000	     -0.00000000000000051295	     -0.00000000000000009344	    -17.71707235105595000000	    -17.34688114414338500000	     -3.87407930888606210000	     80.80932520505408000000	    103.25263393069970000000	      0.00000000000000728260	      0.00000000000000113702
      1.27600000000000000000	      1.11246282501873850000	     -3.81803924640288850000	     -1.15598992579388150000	      0.82924049538810030000	      0.98555390126084075000	     -0.35281466376301168000	     -2.89180027970375960000	     11.70149489055609000000	      5.15224297506708860000	    -27.55522287251798000000	     21.32975986163082600000	      0.00000000000002818417	      0.00000000000004849078	     29.90848396785893800000	     -2.17170741173531080000	      2.47757130749671890000	    -85.45832891599828000000	     -3.87911679800164500000	      0.00000000000001970771	      0.00000000000002212529	    -16.02604978934957500000	      1.85694710077253510000	      5.27312762590344250000	    -14.24710267596988600000	    -25.23659811544070000000	    -12.57015452412399600000	     93.45287198746224500000	     68.45252497911867800000	     -0.00000000000000050296	     -0.00000000000000013592	    -17.97289902336168400000	    -17.38257359661572100000	     -3.98921909523794540000	     80.98304838507387200000	    103.03202649496372000000	      0.00000000000000742251	      0.00000000000000117387
